<?xml version="1.0" standalone="no"?>
<!DOCTYPE svg PUBLIC "-//W3C//DTD SVG 20010904//EN"
 "http://www.w3.org/TR/2001/REC-SVG-20010904/DTD/svg10.dtd">
<svg version="1.0" xmlns="http://www.w3.org/2000/svg"
 width="3363.000000pt" height="3363.000000pt" viewBox="0 0 3363.000000 3363.000000"
 preserveAspectRatio="xMidYMid meet">
<metadata>
Created by potrace 1.14, written by Peter Selinger 2001-2017
</metadata>
<g transform="translate(0.000000,3363.000000) scale(0.100000,-0.100000)"
fill="#000000" stroke="none">
<path d="M7238 26123 c-19 -22 -45 -112 -54 -180 -4 -29 -10 -53 -15 -53 -5 0
-8 -3 -7 -7 3 -13 -13 -76 -25 -98 -6 -11 -12 -23 -13 -27 -1 -5 -3 -10 -4
-13 -1 -3 -3 -8 -4 -12 -1 -5 -6 -23 -10 -40 -4 -18 -12 -33 -16 -33 -5 0 -7
-7 -4 -15 4 -8 1 -15 -6 -15 -6 0 -9 -4 -6 -9 4 -5 1 -22 -6 -38 -6 -15 -12
-31 -13 -35 -2 -5 -4 -10 -5 -13 -1 -3 -4 -9 -5 -15 -1 -5 -4 -12 -5 -15 -1
-3 -4 -9 -5 -15 -1 -5 -3 -11 -5 -12 -1 -2 -3 -10 -5 -18 -2 -8 -18 -55 -35
-105 -18 -49 -34 -101 -36 -114 -3 -14 -8 -29 -12 -35 -3 -6 -7 -16 -8 -23 -5
-29 -29 -91 -58 -147 -22 -43 -38 -62 -57 -67 -14 -3 -97 -9 -185 -13 -87 -4
-168 -9 -179 -11 -11 -3 -102 -9 -203 -14 -183 -10 -204 -8 -277 24 -46 20
-174 66 -226 80 -186 52 -552 53 -844 1 -194 -34 -261 -47 -295 -57 -19 -6
-53 -15 -75 -19 -22 -5 -74 -18 -115 -29 -41 -12 -99 -27 -128 -36 -29 -8 -67
-21 -84 -30 -17 -8 -41 -15 -54 -15 -13 0 -26 -4 -29 -10 -3 -5 -17 -10 -30
-10 -13 0 -27 -4 -30 -10 -3 -5 -13 -10 -20 -10 -8 0 -39 -11 -69 -25 -30 -14
-60 -25 -65 -25 -6 0 -19 -4 -29 -9 -40 -22 -109 -51 -120 -51 -7 0 -20 -4
-30 -10 -24 -13 -193 -90 -199 -90 -5 0 -146 -66 -185 -87 -16 -8 -28 -11 -28
-6 0 4 -4 3 -8 -3 -9 -13 -164 -90 -174 -86 -5 1 -8 -2 -8 -7 0 -10 -27 -21
-44 -20 -5 0 -12 -3 -15 -8 -11 -15 -60 -43 -76 -43 -8 0 -15 -3 -15 -7 0 -5
-19 -17 -43 -28 -23 -11 -48 -26 -55 -33 -8 -6 -18 -10 -23 -7 -5 4 -9 2 -9
-2 0 -5 -28 -23 -62 -42 -86 -45 -122 -65 -128 -71 -12 -13 -155 -93 -167 -93
-6 0 -10 -4 -7 -8 2 -4 -11 -12 -29 -17 -34 -9 -317 -190 -469 -300 -44 -31
-78 -63 -78 -72 0 -17 -128 -127 -142 -123 -4 2 -7 0 -5 -5 1 -4 -21 -31 -49
-59 -62 -63 -75 -105 -43 -139 29 -31 81 -47 122 -39 176 36 396 107 639 204
116 47 120 45 93 -46 -10 -35 -36 -76 -80 -129 -121 -146 -138 -236 -53 -280
63 -33 212 6 618 161 222 84 394 147 540 195 366 121 420 135 420 107 0 -6
-12 -17 -27 -24 -16 -6 -84 -35 -153 -63 -174 -72 -171 -71 -405 -186 -233
-114 -346 -179 -466 -269 -131 -97 -145 -137 -67 -185 42 -25 48 -25 114 5 30
14 57 25 59 25 2 0 46 20 96 45 51 25 103 45 117 45 14 0 44 -12 66 -27 36
-25 48 -28 125 -28 47 0 113 7 146 14 186 42 357 92 669 195 204 68 365 116
387 116 22 0 39 5 39 11 0 6 6 9 14 6 7 -3 17 -2 22 3 9 8 184 66 219 72 11 1
22 5 25 8 5 5 92 30 120 35 8 1 22 5 30 8 31 12 96 30 115 33 26 4 46 9 65 17
20 8 151 40 170 42 9 0 21 5 28 9 7 4 16 5 19 2 3 -3 14 -1 23 4 10 5 33 11
51 14 19 2 46 9 61 15 14 5 45 12 67 15 22 2 44 6 48 9 5 3 27 8 49 11 23 4
55 11 73 16 17 5 32 9 34 8 13 -2 104 16 112 23 16 12 183 34 192 25 13 -13 5
-101 -16 -168 -11 -34 -40 -128 -66 -208 -25 -80 -73 -246 -107 -370 -33 -124
-65 -228 -69 -231 -12 -7 -99 -387 -139 -604 -10 -55 -26 -140 -35 -190 -39
-212 -90 -531 -104 -655 -5 -41 -19 -154 -31 -250 -21 -174 -41 -371 -42 -400
0 -8 -4 -51 -9 -95 -5 -44 -9 -96 -10 -115 -1 -19 -7 -123 -14 -230 -28 -403
-40 -1340 -23 -1780 11 -301 28 -751 38 -1010 23 -587 33 -1444 19 -1729 l-4
-93 32 -27 c17 -14 52 -32 77 -40 25 -7 47 -20 50 -29 2 -10 12 -48 21 -87 13
-54 24 -77 50 -100 29 -27 34 -39 40 -100 4 -38 4 -114 -1 -169 -10 -124 -7
-215 7 -232 19 -24 99 -56 122 -50 29 7 67 74 67 118 0 19 -9 82 -19 140 -23
121 -26 193 -16 333 4 62 2 125 -5 165 -34 197 -65 860 -40 860 6 0 10 9 10
20 0 10 9 24 20 30 11 6 20 20 20 30 0 14 7 20 24 20 17 0 32 14 60 57 42 68
44 86 21 318 -23 239 -23 1106 0 1325 3 25 7 106 11 180 3 74 7 149 9 165 2
17 6 77 10 135 3 58 13 186 21 285 8 99 17 209 20 245 2 36 7 90 11 120 3 30
6 58 5 62 -1 4 3 47 8 95 5 48 12 117 15 153 4 61 6 82 21 205 8 62 11 99 19
199 3 44 8 82 10 86 2 3 7 46 10 96 4 49 9 92 11 96 2 3 6 30 9 59 15 143 20
195 31 279 3 25 8 59 10 75 2 17 6 50 9 75 10 77 15 112 29 230 8 64 20 146
26 183 6 37 13 89 15 115 3 26 8 58 11 72 4 14 8 39 10 55 14 110 16 126 39
260 9 50 18 108 21 130 3 22 9 56 14 75 5 19 12 50 15 69 3 18 12 45 20 60 7
15 21 55 29 88 17 65 62 163 80 175 6 4 8 8 3 8 -9 0 53 112 67 122 6 4 7 8 3
8 -5 0 1 13 12 29 12 16 21 34 21 40 0 6 5 11 12 11 6 0 9 3 5 6 -6 7 72 137
85 142 5 2 6 8 2 13 -3 5 2 12 10 15 9 3 13 10 10 15 -3 5 0 9 5 9 6 0 11 7
11 15 0 8 7 15 16 15 14 0 16 -15 10 -137 -4 -76 -9 -169 -10 -208 -4 -86 -16
-266 -22 -320 -2 -22 -6 -89 -9 -150 -3 -60 -7 -119 -10 -130 -2 -11 -7 -76
-11 -145 -3 -69 -8 -128 -10 -131 -2 -4 -6 -67 -10 -140 -3 -74 -8 -137 -10
-141 -3 -4 -7 -47 -9 -95 -3 -48 -7 -106 -10 -128 -2 -22 -7 -90 -10 -150 -4
-60 -8 -112 -10 -115 -2 -3 -6 -66 -10 -140 -3 -74 -8 -146 -10 -160 -7 -41
-22 -252 -30 -410 -3 -58 -8 -116 -10 -130 -3 -14 -7 -74 -10 -135 -5 -107 -8
-162 -25 -410 -4 -66 -11 -187 -14 -269 -4 -82 -8 -152 -10 -155 -2 -3 -7 -76
-11 -161 -4 -85 -9 -171 -10 -190 -11 -149 -23 -338 -31 -495 -3 -66 -8 -123
-9 -126 -2 -3 -7 -79 -10 -170 -4 -90 -8 -186 -10 -214 -29 -384 -39 -1049
-19 -1355 19 -295 48 -400 127 -464 36 -29 45 -31 116 -31 75 0 83 2 192 57
135 67 194 87 211 70 7 -7 23 -12 35 -12 86 0 184 -129 263 -343 26 -73 70
-219 85 -287 36 -159 102 -511 102 -540 0 -8 5 -40 11 -70 6 -30 11 -62 11
-70 0 -8 19 -123 41 -255 22 -132 45 -267 50 -300 5 -33 14 -82 20 -110 12
-60 27 -145 35 -200 3 -22 10 -53 15 -70 5 -16 11 -50 15 -75 4 -25 13 -72 20
-105 19 -80 57 -274 61 -305 3 -26 63 -305 90 -418 8 -35 12 -67 9 -72 -3 -4
0 -10 5 -12 6 -2 12 -19 13 -38 1 -19 6 -41 11 -48 4 -7 5 -16 2 -19 -3 -3 -1
-12 4 -19 6 -6 10 -16 9 -20 -2 -5 3 -29 10 -53 7 -25 14 -56 16 -70 2 -14 4
-26 5 -26 1 0 3 -8 6 -17 5 -24 9 -36 22 -83 6 -22 13 -51 16 -65 2 -14 9 -38
15 -53 6 -15 10 -31 10 -35 -1 -4 0 -9 1 -12 4 -11 11 -46 13 -67 1 -13 6 -23
11 -23 4 0 6 -7 2 -15 -3 -8 -2 -15 3 -15 8 0 8 -3 13 -50 2 -14 5 -27 8 -30
12 -11 27 -78 29 -134 1 -32 6 -65 10 -75 20 -39 49 -126 41 -126 0 0 9 -27
20 -59 11 -33 20 -65 20 -72 0 -7 5 -25 12 -41 6 -15 13 -37 15 -48 8 -37 11
-50 13 -52 3 -3 4 -7 14 -48 4 -16 10 -37 12 -45 3 -8 5 -15 4 -15 0 0 8 -26
19 -57 11 -32 17 -58 14 -58 -3 0 -1 -6 5 -13 6 -7 13 -24 15 -37 2 -14 7 -32
10 -40 5 -12 22 -73 32 -110 1 -3 16 -52 35 -110 19 -58 35 -108 36 -112 1 -5
2 -9 4 -10 1 -2 3 -10 5 -18 2 -8 20 -62 39 -120 20 -58 38 -112 40 -120 2 -8
14 -42 26 -75 12 -33 24 -69 27 -80 3 -11 11 -26 17 -34 9 -12 8 -13 -4 -6 -9
5 -8 0 4 -13 11 -12 17 -22 13 -22 -3 0 6 -30 20 -67 14 -38 30 -84 36 -103 6
-19 15 -38 20 -41 5 -3 8 -9 8 -13 -2 -18 13 -66 20 -66 5 0 8 -3 7 -7 -4 -16
25 -129 43 -168 10 -22 41 -98 69 -170 29 -71 58 -145 66 -162 8 -18 20 -48
28 -65 131 -311 153 -356 233 -475 36 -54 64 -91 60 -83 -3 8 -39 92 -79 185
-66 151 -122 290 -233 575 -19 47 -57 150 -85 230 -77 216 -85 237 -115 290
-7 14 -16 38 -19 54 -3 16 -11 33 -18 38 -7 4 -10 8 -6 8 4 0 0 16 -8 35 -8
19 -11 35 -8 35 4 0 2 6 -4 12 -5 7 -13 29 -17 48 -4 19 -11 40 -14 45 -6 8
-28 72 -37 108 -1 4 -2 8 -3 10 -2 1 -4 12 -7 25 -2 13 -11 36 -19 52 -9 17
-15 33 -15 37 0 5 -7 33 -16 63 -9 30 -17 60 -19 65 -1 6 -5 17 -8 25 -9 24
-37 114 -38 122 0 4 -4 20 -9 35 -21 69 -62 209 -65 223 -2 8 -8 29 -15 45 -6
17 -11 32 -11 35 0 8 -10 54 -16 70 -8 21 -11 31 -18 62 -3 15 -10 39 -15 53
-5 14 -7 25 -4 25 2 0 0 8 -5 19 -6 10 -13 31 -15 47 -3 16 -11 45 -16 64 -6
19 -13 46 -16 59 -3 14 -14 57 -25 96 -10 39 -18 82 -18 95 1 14 -3 43 -9 65
-6 22 -16 59 -22 83 -6 24 -17 42 -25 42 -8 0 -12 8 -10 20 2 11 -1 20 -7 20
-6 0 -9 3 -5 6 3 3 -1 29 -10 57 -8 28 -17 60 -19 71 -3 12 -7 32 -10 46 -3
14 -7 32 -9 40 -2 8 -4 15 -5 15 -1 0 -3 7 -5 15 -2 8 -6 29 -10 45 -3 17 -8
39 -10 50 -2 11 -6 29 -9 40 -10 36 -25 99 -30 125 -3 14 -8 36 -11 50 -4 14
-8 34 -10 45 -2 11 -7 31 -10 45 -4 14 -8 38 -11 55 -2 16 -7 38 -10 47 -3 10
-7 28 -10 40 -2 13 -6 34 -10 48 -3 14 -7 39 -9 55 -2 17 -7 41 -10 55 -8 31
-25 115 -30 155 -5 36 -13 70 -16 70 -1 0 -3 9 -4 20 -2 11 -6 34 -9 50 -4 17
-9 50 -12 75 -3 25 -9 59 -14 75 -5 17 -11 46 -14 65 -2 19 -12 74 -20 123 -9
48 -19 104 -22 125 -3 20 -10 42 -16 49 -5 6 -8 17 -7 25 1 7 -1 20 -4 28 -3
8 -8 31 -11 50 -2 19 -10 61 -16 93 -6 33 -9 61 -6 65 3 3 2 10 -3 16 -11 13
-34 157 -26 164 2 3 1 10 -4 16 -8 10 -20 87 -26 161 -2 17 -5 37 -8 45 -3 8
-11 56 -17 105 -6 50 -29 205 -51 345 -22 140 -47 301 -55 357 -36 264 -137
581 -227 712 -57 84 -141 171 -164 171 -12 0 -25 5 -28 10 -3 6 -39 10 -79 10
-75 0 -179 -31 -216 -65 -20 -19 -113 -52 -167 -61 -34 -5 -43 -2 -71 24 -26
25 -35 46 -53 123 -12 52 -25 103 -30 114 -21 49 -45 405 -44 650 2 210 8 421
13 429 3 6 6 37 8 70 7 243 16 439 20 458 2 13 6 93 9 178 4 85 8 175 10 200
6 64 16 231 20 320 7 169 16 326 20 350 3 14 7 103 11 199 3 95 7 183 10 195
2 11 7 71 10 131 2 61 7 142 9 180 3 39 7 124 10 190 3 66 7 136 11 155 3 19
7 78 9 130 4 92 7 141 19 300 4 41 9 111 11 155 12 171 15 212 20 270 3 33 7
94 10 135 3 41 7 100 9 130 3 30 8 96 11 145 8 114 12 170 20 270 9 109 12
152 19 275 3 58 8 125 11 150 3 25 8 88 11 140 5 98 8 147 19 310 8 119 11
168 20 410 l7 195 45 73 c24 39 51 72 59 72 8 0 14 7 14 15 0 8 5 15 10 15 6
0 10 8 10 18 0 10 9 25 20 35 11 9 20 26 20 37 0 11 5 20 10 20 6 0 10 7 10
15 0 8 5 15 10 15 6 0 10 7 10 16 0 9 5 12 12 8 6 -4 8 -3 5 3 -8 12 27 65 37
56 4 -5 7 -3 6 2 -4 19 0 31 18 51 9 10 26 36 37 58 11 21 27 41 36 43 25 7
59 76 59 120 0 35 -4 41 -35 56 -20 9 -43 17 -51 17 -9 0 -46 -32 -82 -72 -37
-40 -80 -86 -97 -104 -16 -17 -31 -34 -32 -38 -1 -4 -19 -29 -40 -56 -46 -59
-73 -65 -73 -17 0 19 3 37 7 41 5 4 9 24 10 44 1 20 4 82 8 137 3 55 6 135 5
178 -1 50 3 77 10 77 6 0 9 4 5 9 -7 13 27 23 94 26 31 2 63 6 71 8 13 4 135
17 315 32 161 14 412 33 425 33 8 0 47 3 85 6 149 12 567 36 700 41 77 3 163
7 190 10 185 18 651 26 880 16 227 -10 236 -12 390 -85 62 -30 97 -52 210
-138 34 -26 168 -158 206 -203 146 -176 254 -430 304 -718 51 -294 42 -813
-20 -1182 -8 -49 -20 -121 -26 -160 -55 -348 -244 -1134 -278 -1163 -20 -16
-30 -51 -64 -209 -6 -29 -15 -53 -19 -53 -4 0 -8 -10 -8 -22 0 -13 -7 -48 -16
-78 -8 -30 -16 -59 -18 -65 -1 -5 -8 -30 -15 -55 -7 -25 -15 -52 -18 -60 -10
-26 -24 -79 -25 -97 -1 -7 -6 -13 -11 -13 -6 0 -8 -3 -5 -6 4 -3 2 -20 -3 -37
-6 -18 -12 -39 -14 -47 -1 -9 -16 -56 -31 -105 -15 -50 -29 -96 -30 -103 -1
-8 -6 -21 -10 -30 -8 -20 -11 -29 -18 -61 -3 -13 -12 -42 -20 -65 -8 -22 -20
-61 -27 -86 -7 -25 -15 -49 -18 -55 -3 -5 -6 -12 -7 -15 -9 -52 -18 -81 -25
-85 -4 -3 -6 -12 -2 -20 3 -8 -1 -15 -8 -15 -7 0 -10 -3 -6 -6 3 -4 0 -22 -8
-40 -8 -19 -12 -34 -9 -34 2 0 -3 -16 -11 -36 -8 -20 -15 -45 -15 -55 0 -11
-4 -19 -9 -19 -5 0 -8 -8 -6 -17 1 -10 -2 -26 -7 -36 -5 -10 -12 -31 -14 -45
-3 -15 -8 -29 -12 -32 -7 -5 -10 -14 -15 -48 -1 -9 -6 -23 -10 -29 -5 -7 -6
-13 -3 -13 3 0 -2 -16 -10 -35 -8 -19 -11 -35 -8 -35 4 0 2 -6 -3 -12 -9 -12
-21 -48 -29 -86 -1 -8 -9 -21 -17 -30 -8 -10 -22 -44 -31 -77 -9 -33 -23 -77
-31 -97 -8 -21 -13 -38 -10 -38 3 0 -2 -17 -10 -37 -9 -21 -16 -39 -16 -40 1
-2 1 -4 0 -5 0 -2 -2 -11 -4 -20 -2 -10 -14 -52 -28 -95 -34 -106 -66 -214
-72 -241 -2 -12 -7 -27 -10 -32 -3 -5 -8 -18 -10 -28 -2 -10 -17 -65 -33 -123
-16 -57 -33 -117 -37 -134 -5 -16 -10 -37 -12 -45 -9 -32 -8 -73 2 -77 6 -2
21 32 34 74 13 43 28 85 32 93 7 15 161 489 217 670 17 52 33 114 36 137 3 23
11 54 18 70 6 15 12 33 13 38 2 6 10 33 20 60 9 28 18 57 20 65 2 8 4 15 5 15
1 0 3 8 5 18 2 10 7 26 11 35 4 9 8 20 9 25 2 4 4 9 5 12 1 3 4 10 5 15 1 6 3
11 5 13 2 3 11 40 12 55 1 6 6 12 11 12 6 0 8 3 5 6 -4 3 9 50 27 104 18 54
31 101 27 104 -3 3 -1 6 5 6 5 0 10 6 10 13 0 6 13 50 29 97 15 47 29 88 30
93 1 4 3 10 4 15 1 4 3 12 4 17 1 6 5 17 8 25 4 8 16 47 29 85 12 39 30 96 41
129 11 32 22 66 23 75 2 9 4 16 5 16 1 0 3 7 5 15 3 8 16 51 29 95 14 44 39
125 56 180 17 55 33 108 35 117 2 9 9 26 15 37 6 12 8 21 5 21 -2 0 4 24 15
53 11 28 21 63 24 77 2 14 5 26 7 28 1 1 2 5 3 10 12 45 28 100 33 112 3 8 5
19 4 24 -1 4 3 13 8 20 5 6 12 25 15 41 2 17 5 31 6 33 2 1 4 7 5 12 1 6 3 11
5 13 1 1 3 9 5 17 18 72 38 137 45 145 5 6 12 44 16 85 4 41 15 104 26 140 11
36 21 76 24 90 2 14 7 32 10 40 3 8 8 26 10 40 10 54 66 296 71 310 4 8 6 18
5 22 -1 4 7 49 18 101 30 142 79 434 85 508 4 35 8 70 10 76 2 7 7 50 10 95 3
46 8 92 10 103 2 11 7 99 10 195 8 216 -8 460 -41 614 -9 39 -17 80 -18 91 -6
41 -27 105 -35 105 -4 0 -15 26 -25 58 -55 177 -194 398 -342 546 -92 91 -204
186 -222 186 -16 1 -62 50 -62 66 0 16 13 17 163 10 89 -4 182 -11 207 -16 25
-5 100 -9 167 -10 67 0 184 -9 260 -19 76 -11 166 -22 200 -26 62 -6 63 -6 54
17 -6 16 -20 26 -50 32 -62 13 -54 36 13 36 40 0 55 4 60 16 9 23 8 24 -14 24
-28 0 -35 25 -22 74 12 46 1 65 -52 93 -26 14 -220 66 -361 98 -206 46 -381
82 -580 120 -77 15 -180 35 -228 46 -49 10 -102 19 -118 19 -19 0 -29 5 -29
15 0 11 12 15 49 15 145 0 526 -37 861 -85 58 -8 129 -15 158 -15 28 0 98 -7
155 -16 250 -38 231 -39 242 6 5 23 1 28 -32 42 -21 8 -85 28 -143 43 -169 44
-202 56 -266 100 -58 40 -67 42 -155 49 -52 4 -161 18 -244 32 -82 14 -175 29
-205 34 -30 4 -89 16 -130 24 -41 9 -122 25 -180 36 -58 10 -150 28 -205 39
-55 12 -152 31 -215 43 -63 13 -117 26 -120 30 -7 8 -361 72 -525 93 -22 3
-80 12 -130 20 -49 8 -119 17 -155 20 -36 3 -74 8 -86 10 -11 3 -52 7 -90 10
-38 3 -80 8 -94 10 -14 2 -52 7 -85 10 -33 3 -78 8 -100 10 -22 3 -83 7 -135
10 -52 3 -120 7 -150 10 -55 5 -109 8 -470 21 -107 3 -205 10 -217 15 -27 10
-28 20 -7 83 20 57 14 128 -11 156 -10 11 -19 36 -20 55 -3 39 15 115 27 115
4 0 5 6 3 13 -3 7 4 30 15 52 11 21 20 45 20 52 0 7 4 13 9 13 10 0 50 119 58
175 4 35 2 45 -18 64 -13 12 -39 26 -59 31 -35 9 -37 12 -37 55 0 25 3 45 7
45 14 0 45 180 36 208 -7 20 -45 42 -75 42 -10 0 -25 -8 -33 -17z m-25 -359
c0 -5 -4 -31 -7 -59 -13 -100 -15 -111 -27 -140 -7 -16 -12 -33 -11 -37 1 -5
-3 -8 -10 -8 -6 0 -9 -3 -5 -6 3 -3 -2 -14 -11 -25 -9 -11 -17 -23 -18 -27 -4
-32 -53 -112 -68 -112 -8 0 -7 35 1 44 4 3 8 12 9 19 9 40 14 58 22 74 6 10
11 23 12 28 1 6 6 20 11 33 5 13 9 28 9 33 0 6 7 23 15 39 8 16 16 38 18 48 2
11 9 28 17 38 8 9 14 19 12 21 -7 9 12 53 22 50 6 -3 10 -8 9 -13z m-65 -450
c-12 -32 -23 -62 -24 -66 -1 -5 -3 -11 -4 -15 -1 -5 -2 -11 -1 -15 0 -5 -4 -8
-11 -8 -6 0 -8 -3 -5 -7 4 -3 2 -12 -4 -20 -6 -7 -9 -13 -6 -13 3 0 -2 -19
-12 -42 -22 -52 -34 -81 -35 -88 -1 -3 -8 -20 -16 -38 -16 -34 -37 -46 -63
-36 -16 6 -20 44 -4 44 4 0 5 5 2 10 -3 6 -2 10 3 10 9 0 27 47 24 63 -1 4 3
7 9 7 5 0 7 5 4 10 -3 6 -2 10 4 10 9 0 21 26 20 44 0 5 3 12 8 15 4 3 19 29
33 56 13 28 33 64 45 80 11 17 18 30 16 30 -2 0 2 10 10 22 25 41 30 7 7 -53z
m-1778 -344 c0 -5 24 -10 53 -10 57 0 219 -23 291 -41 51 -13 61 -35 19 -43
-64 -13 -149 -26 -168 -25 -11 0 -60 -7 -110 -15 -49 -9 -110 -18 -135 -21
-25 -3 -56 -7 -70 -10 -22 -4 -236 -41 -300 -51 -14 -3 -41 -6 -60 -8 -19 -2
-42 -6 -50 -9 -19 -7 -276 -58 -310 -62 -14 -1 -43 -7 -65 -13 -22 -6 -125
-32 -230 -58 -104 -26 -223 -57 -263 -70 -41 -14 -78 -22 -83 -19 -5 4 -9 2
-9 -4 0 -8 -76 -39 -113 -45 -7 -1 -34 -12 -61 -24 -27 -12 -53 -22 -58 -22
-10 0 -335 -159 -383 -188 -16 -9 -57 -35 -89 -57 -33 -22 -71 -46 -85 -54
-14 -8 -28 -17 -31 -20 -3 -3 -31 -28 -63 -54 -64 -54 -169 -162 -177 -182 -5
-12 -91 -92 -190 -178 -73 -63 -297 -176 -321 -161 -5 3 -9 1 -9 -4 0 -5 -57
-28 -127 -50 -177 -56 -333 -73 -333 -37 0 16 37 64 69 90 57 46 101 88 101
96 0 13 62 68 77 69 6 0 13 3 15 8 7 17 61 51 71 45 5 -3 7 -2 4 3 -5 10 165
129 178 125 4 -1 12 4 18 12 7 8 28 23 47 33 19 11 37 22 40 26 3 3 12 8 19
10 8 2 23 11 33 21 10 10 23 15 27 12 5 -2 11 2 15 10 3 8 12 15 21 15 8 0 15
4 15 8 0 5 21 19 46 33 46 24 51 27 113 66 19 12 38 20 43 17 4 -3 8 -1 8 5 0
6 17 19 37 30 99 49 168 87 173 91 3 3 39 23 80 43 41 20 86 44 100 51 87 50
233 115 242 110 6 -4 8 -3 4 4 -6 10 59 39 77 34 4 -1 7 2 7 7 0 9 56 32 74
30 5 0 12 3 15 8 12 16 82 43 94 37 7 -4 9 -3 4 1 -8 10 95 55 125 55 10 0 18
4 18 9 0 5 10 13 23 16 12 4 51 18 87 32 35 14 69 26 75 28 5 1 17 5 25 9 40
17 175 54 182 50 4 -3 8 -1 8 4 0 11 147 55 160 47 4 -3 10 0 12 5 2 6 17 13
33 15 17 2 30 5 30 6 0 1 9 3 20 5 11 2 45 10 75 19 30 8 69 17 85 19 17 3 63
12 103 20 40 9 98 18 129 21 31 3 59 8 63 10 3 2 58 7 121 11 63 3 116 8 118
10 10 9 171 3 171 -6z m1408 -179 c17 -10 8 -46 -30 -127 -28 -60 -29 -62 -76
-68 -26 -3 -126 -9 -222 -12 -136 -4 -179 -2 -191 8 -16 13 -89 149 -89 166 0
13 88 21 300 28 102 3 187 8 189 10 8 7 106 4 119 -5z m952 -16 c3 -2 69 -7
146 -10 77 -3 153 -8 169 -10 17 -2 68 -6 115 -9 47 -3 105 -8 130 -11 25 -2
74 -7 110 -10 36 -4 79 -8 95 -10 17 -2 64 -6 105 -10 41 -3 86 -8 100 -10 14
-3 41 -7 60 -9 19 -2 62 -8 95 -12 33 -4 66 -7 73 -6 6 2 12 -4 12 -13 0 -8
-6 -15 -14 -15 -8 0 -16 -4 -18 -9 -6 -15 -1677 -35 -1693 -20 -10 11 -10 109
0 117 6 4 18 19 28 35 l18 27 231 -6 c128 -3 235 -7 238 -9z m-1729 -49 c34
-17 89 -86 89 -112 0 -22 -31 -44 -63 -46 -18 0 -43 -2 -57 -3 -14 -2 -72 -5
-130 -9 -58 -4 -123 -9 -145 -11 -22 -3 -71 -7 -110 -10 -38 -3 -77 -8 -85
-10 -8 -2 -53 -6 -99 -10 -46 -3 -87 -7 -90 -9 -3 -2 -31 -7 -61 -10 -73 -9
-265 -39 -395 -63 -16 -3 -42 -6 -57 -7 -16 0 -28 -4 -28 -7 0 -4 -21 -10 -47
-14 -27 -5 -55 -10 -63 -12 -8 -2 -26 -5 -40 -7 -14 -2 -32 -6 -40 -9 -8 -4
-87 -24 -176 -46 -88 -22 -173 -45 -188 -51 -16 -6 -31 -8 -34 -5 -3 2 -10 0
-17 -5 -6 -5 -20 -11 -31 -13 -10 -2 -27 -7 -36 -11 -9 -4 -22 -9 -30 -10 -7
-2 -20 -6 -28 -9 -15 -5 -150 -50 -160 -52 -3 -1 -16 -6 -30 -12 -14 -5 -92
-34 -175 -62 -82 -29 -202 -73 -265 -98 -171 -67 -179 -70 -247 -80 -26 -4
-33 -2 -33 11 0 9 5 16 10 16 6 0 16 11 22 25 6 14 39 42 72 63 89 56 302 162
310 155 3 -3 6 -1 6 5 0 6 10 14 23 17 22 6 70 27 117 51 14 6 34 14 45 16 11
1 22 6 25 10 3 4 15 9 25 11 11 2 38 12 60 22 22 9 45 18 50 19 6 1 15 4 20 7
6 3 44 16 85 29 41 13 89 29 107 36 17 8 35 14 41 14 5 0 38 9 73 20 35 11 69
18 77 15 7 -2 11 -1 8 4 -3 4 18 13 47 20 29 6 63 14 77 17 14 3 34 7 45 7 11
1 22 5 25 9 5 6 54 18 96 22 11 1 24 5 30 8 5 3 25 9 45 12 20 3 42 8 50 10 8
3 26 7 41 10 15 3 63 12 105 20 43 9 92 18 108 21 17 2 55 9 85 14 49 9 101
17 165 26 11 2 49 8 84 14 36 6 67 9 69 6 2 -2 14 0 26 4 11 5 57 12 101 16
44 4 82 8 85 10 3 2 41 6 85 10 44 4 109 11 145 15 95 10 140 6 181 -14z m72
-235 c5 -1 7 -6 5 -13 -4 -12 -14 -14 -88 -22 -25 -3 -61 -8 -80 -11 -19 -3
-53 -7 -75 -10 -52 -5 -122 -14 -240 -30 -27 -4 -63 -9 -80 -11 -16 -2 -43 -5
-60 -8 -16 -2 -55 -7 -85 -11 -30 -4 -66 -9 -80 -12 -14 -2 -38 -6 -55 -8
-118 -15 -152 -20 -165 -25 -3 -1 -8 -2 -12 -1 -4 0 -31 -4 -60 -10 -29 -5
-71 -12 -93 -14 -22 -2 -51 -7 -65 -10 -14 -4 -36 -8 -50 -10 -14 -2 -45 -7
-70 -11 -25 -4 -53 -8 -62 -8 -10 0 -18 -4 -18 -9 0 -4 -3 -6 -8 -3 -6 4 -55
-3 -132 -20 -24 -5 -44 -9 -100 -18 -14 -3 -25 -5 -25 -6 0 -1 -9 -3 -20 -5
-44 -8 -101 -20 -174 -36 -44 -10 -62 -6 -45 10 9 9 115 41 142 43 6 1 12 5
12 10 0 5 4 7 9 4 5 -3 27 1 49 8 22 8 43 12 46 9 3 -4 6 -1 6 6 0 7 4 10 8 7
5 -3 33 2 63 10 90 25 93 25 119 29 14 2 25 4 25 5 0 1 11 3 25 6 21 3 46 9
80 19 3 1 25 5 50 10 25 5 47 9 50 10 3 0 27 4 53 9 27 4 59 10 70 13 12 3 32
5 45 6 12 1 22 3 22 7 0 3 12 5 28 6 15 0 45 3 67 7 22 4 56 9 75 12 49 8 88
14 140 20 25 3 63 7 85 10 67 8 117 13 200 20 134 12 146 12 280 20 72 4 131
8 132 9 2 2 13 2 25 0 13 -1 27 -3 31 -3z m2777 -94 c30 -4 123 -9 205 -12 83
-3 166 -8 185 -10 19 -2 66 -7 105 -11 38 -3 78 -8 90 -10 11 -2 40 -6 65 -9
25 -3 54 -8 65 -10 18 -4 58 -9 140 -19 17 -2 75 -11 130 -21 55 -9 109 -18
120 -19 31 -5 108 -18 130 -23 11 -2 31 -6 45 -7 65 -8 140 -30 140 -42 0 -16
-28 -25 -60 -18 -14 2 -52 7 -85 10 -33 3 -73 7 -90 9 -57 8 -140 16 -195 19
-51 4 -137 12 -220 21 -19 2 -80 6 -135 10 -99 6 -164 10 -280 20 -54 4 -151
10 -350 21 -256 14 -441 17 -1005 18 -451 1 -641 5 -655 13 -26 15 -15 24 32
28 60 5 218 15 338 21 61 3 142 7 180 9 39 3 228 7 420 11 193 4 351 7 352 8
5 4 286 -2 333 -7z m-2684 -6 c6 -1 12 -12 12 -26 0 -14 -6 -25 -12 -26 -6 0
-20 -2 -31 -4 -11 -2 -40 -7 -65 -10 -25 -4 -58 -9 -75 -11 -16 -3 -50 -7 -75
-9 -25 -2 -45 -4 -45 -5 0 -1 -13 -4 -30 -6 -16 -1 -48 -5 -70 -8 -22 -3 -58
-7 -80 -10 -22 -3 -56 -8 -75 -11 -19 -4 -54 -8 -77 -8 -24 -1 -43 -4 -43 -7
0 -3 -21 -6 -47 -8 -26 -1 -59 -5 -73 -8 -14 -3 -43 -7 -65 -9 -22 -2 -53 -7
-70 -10 -16 -3 -45 -6 -62 -7 -18 0 -33 -3 -33 -7 0 -4 -17 -8 -37 -8 -40 -1
-110 -9 -153 -18 -14 -3 -45 -8 -70 -11 -25 -3 -58 -8 -75 -11 -16 -2 -48 -7
-70 -9 -22 -2 -56 -6 -75 -9 -32 -4 -65 -8 -175 -19 -22 -2 -53 -7 -70 -9 -33
-6 -132 -18 -177 -22 -16 -2 -27 2 -26 7 2 5 6 9 8 9 3 0 55 12 115 25 61 14
128 27 150 30 21 3 43 8 47 10 4 3 29 8 55 11 51 6 78 11 78 13 0 3 39 10 75
15 19 2 51 7 70 10 19 4 49 9 65 11 17 3 41 6 55 9 57 10 144 23 250 39 14 2
44 7 66 10 23 4 61 9 85 11 24 3 60 7 79 11 70 11 86 13 130 18 25 3 63 8 85
11 22 3 60 8 85 10 25 2 45 4 45 5 0 2 42 8 100 14 28 3 70 8 95 11 25 3 64 7
88 9 24 2 45 6 48 8 2 3 17 4 32 2 15 -1 32 -2 38 -3z m1969 -142 c6 -3 42 -4
80 -3 86 3 137 -5 132 -19 -2 -7 -23 -12 -48 -14 -97 -5 -339 -14 -431 -16
-54 -1 -98 -4 -98 -8 0 -3 -37 -5 -82 -4 -46 1 -87 -1 -93 -4 -5 -4 -37 -7
-70 -8 -58 -1 -150 -10 -150 -13 0 -1 -31 -4 -70 -6 -169 -10 -177 -10 -189 8
-14 23 3 70 29 76 11 2 89 5 172 6 84 2 155 4 157 7 6 6 649 5 661 -2z m-2080
-109 c3 -5 26 -10 51 -10 32 0 44 -4 44 -15 0 -8 -4 -15 -10 -15 -5 0 -10 -7
-10 -15 0 -17 -33 -32 -88 -41 -19 -3 -44 -7 -56 -10 -11 -2 -64 -11 -116 -20
-90 -15 -112 -19 -170 -30 -14 -2 -50 -9 -80 -14 -30 -6 -64 -12 -75 -14 -11
-2 -40 -7 -65 -11 -25 -4 -54 -9 -65 -12 -30 -6 -57 -11 -90 -17 -28 -4 -171
-32 -225 -43 -14 -3 -32 -7 -40 -8 -8 -1 -31 -5 -50 -9 -19 -4 -44 -9 -55 -11
-11 -2 -20 -4 -20 -5 0 -1 -11 -3 -25 -5 -14 -1 -43 -7 -65 -13 -22 -6 -58
-14 -80 -17 -22 -4 -58 -11 -80 -17 -39 -10 -55 -13 -105 -23 -30 -6 -45 -9
-130 -30 -76 -19 -98 -24 -125 -30 -11 -3 -63 -16 -115 -30 -171 -46 -215 -57
-225 -60 -5 -1 -17 -5 -25 -8 -8 -3 -28 -9 -45 -13 -37 -9 -23 -5 -130 -39
-49 -16 -93 -30 -97 -31 -5 -1 -9 -2 -10 -4 -2 -1 -10 -3 -19 -5 -9 -1 -72
-22 -140 -45 -68 -23 -132 -42 -141 -43 -10 -1 -18 -5 -18 -9 0 -4 -7 -8 -15
-8 -9 0 -40 -9 -70 -19 -29 -10 -56 -16 -59 -13 -3 3 -6 0 -6 -6 0 -7 -3 -11
-7 -10 -5 1 -21 -4 -36 -10 -16 -7 -33 -10 -38 -6 -5 3 -9 0 -9 -5 0 -6 -3
-10 -7 -9 -5 0 -15 -2 -23 -5 -52 -22 -76 -30 -84 -28 -4 1 -13 -2 -20 -7 -9
-8 -81 -35 -96 -37 -3 0 -11 -4 -18 -9 -7 -4 -16 -5 -19 -2 -3 3 -18 -1 -32
-8 -27 -15 -55 -26 -81 -33 -24 -6 -33 -9 -63 -21 -26 -11 -43 -15 -107 -28
-54 -11 -65 -9 -64 8 1 10 -4 14 -12 11 -18 -7 -18 1 2 39 30 58 49 71 91 64
21 -3 47 -8 58 -9 32 -6 165 23 207 44 21 11 38 17 38 13 0 -3 7 2 16 10 8 9
20 14 25 11 5 -4 9 -2 9 3 0 6 11 13 24 16 14 3 31 12 38 19 16 16 73 42 218
101 63 26 129 53 145 61 40 18 270 101 375 135 432 142 1047 288 1525 364 49
7 230 35 275 41 51 8 227 30 320 41 77 9 174 21 182 23 4 0 10 -3 13 -9z
m2390 -137 c586 -10 594 -11 685 -22 47 -5 95 -10 108 -10 23 -1 32 -31 10
-31 -7 0 -148 -9 -313 -20 -165 -10 -352 -22 -415 -25 -63 -3 -126 -8 -140
-10 -14 -2 -79 -7 -145 -10 -143 -7 -471 -31 -605 -45 -52 -5 -150 -14 -217
-20 -67 -6 -132 -13 -144 -15 -12 -3 -56 -7 -96 -11 l-75 -7 5 92 c3 51 7 95
10 97 9 10 200 24 435 33 129 5 236 12 240 15 3 4 64 4 136 1 72 -3 307 -8
521 -12z m-3925 -4 c0 -4 -26 -13 -57 -19 -32 -6 -71 -15 -87 -20 -15 -6 -32
-7 -37 -4 -5 3 -9 1 -9 -3 0 -5 -24 -14 -52 -21 -74 -17 -77 -17 -223 -58 -71
-20 -140 -38 -152 -39 -12 -2 -26 -6 -31 -9 -10 -6 -318 -105 -346 -111 -10
-2 -24 -9 -32 -16 -8 -6 -14 -8 -14 -5 0 4 -6 4 -12 -1 -7 -4 -22 -9 -33 -10
-10 -2 -22 -8 -25 -13 -5 -8 -46 -20 -77 -22 -7 -1 -13 -5 -13 -10 0 -5 -4 -6
-10 -3 -5 3 -10 2 -10 -3 0 -5 -6 -9 -12 -10 -22 -2 -42 -8 -83 -27 -22 -10
-49 -21 -60 -25 -11 -4 -33 -13 -50 -21 -16 -7 -33 -13 -37 -15 -5 -1 -11 -3
-15 -4 -5 -1 -11 -2 -15 -1 -5 0 -8 -4 -8 -9 0 -5 -3 -9 -7 -8 -5 1 -24 -4
-43 -11 -19 -8 -39 -15 -45 -17 -5 -1 -35 -11 -65 -22 -51 -19 -130 -36 -130
-29 0 2 11 18 25 37 14 19 25 31 25 27 0 -7 12 3 77 63 30 28 69 50 87 50 7 0
18 6 25 13 6 6 15 12 19 12 4 1 17 6 30 13 12 7 22 10 22 6 0 -4 8 2 18 13 9
10 33 25 52 32 19 7 44 17 55 21 11 5 94 32 185 61 91 28 172 54 180 57 8 3
22 6 31 8 9 2 29 9 45 15 16 7 40 13 54 15 14 1 43 8 65 14 22 7 48 12 58 13
9 1 17 4 17 7 0 4 6 7 13 7 14 1 91 13 127 20 14 2 39 6 55 8 17 1 30 4 30 5
0 2 9 4 20 6 11 1 47 9 80 17 33 7 90 13 128 13 37 -1 67 2 67 5 0 4 23 6 51
5 27 -1 55 1 60 5 15 9 89 7 89 -2z m2524 -91 c-5 -82 -10 -123 -17 -135 -8
-13 -72 -10 -70 4 5 24 12 60 18 83 3 14 8 36 11 49 8 39 23 61 43 61 16 0 18
-7 15 -62z m-880 -53 c21 -1 42 -9 47 -16 19 -30 7 -178 -15 -184 -6 -2 -36
-10 -66 -19 -30 -8 -111 -27 -180 -41 -221 -45 -293 -61 -420 -92 -58 -14
-114 -27 -125 -29 -11 -2 -56 -13 -100 -25 -44 -11 -84 -22 -90 -24 -5 -1 -17
-5 -25 -8 -8 -3 -58 -17 -110 -31 -52 -14 -111 -30 -130 -36 -19 -6 -42 -13
-50 -15 -8 -2 -84 -26 -169 -54 -85 -27 -158 -48 -162 -45 -4 2 -9 0 -11 -4
-4 -11 -347 -124 -357 -117 -5 2 -14 -2 -21 -10 -7 -8 -21 -15 -31 -15 -10 0
-28 -4 -41 -9 -51 -21 -194 -61 -215 -61 -13 0 -23 -3 -23 -8 0 -4 -33 -13
-72 -20 -40 -6 -111 -19 -158 -28 -100 -18 -173 -12 -168 14 2 11 77 54 208
119 113 56 210 107 217 112 7 6 19 11 26 11 26 0 88 30 94 45 3 9 18 15 39 15
22 0 37 6 40 15 4 9 19 15 35 15 17 0 32 6 35 15 3 8 16 14 27 13 12 0 74 20
137 45 63 25 209 77 325 116 115 40 212 75 215 80 3 4 27 11 54 15 27 4 56 11
65 16 61 31 540 156 771 199 58 11 128 25 155 30 110 22 161 29 185 24 14 -3
42 -7 64 -8z m851 -290 c-1 -44 -4 -125 -8 -180 -4 -55 -9 -144 -12 -198 -5
-111 -23 -179 -65 -252 -16 -27 -36 -66 -46 -85 -10 -19 -21 -37 -24 -40 -7
-6 -127 -250 -140 -285 -5 -14 -17 -25 -25 -25 -20 0 -19 17 25 240 13 69 28
127 32 128 5 2 6 8 3 12 -3 5 1 37 10 72 8 35 18 81 21 102 3 22 10 48 15 58
5 10 8 18 5 18 -2 0 0 17 5 38 9 37 58 256 63 279 1 7 5 15 8 19 4 3 4 12 1
20 -3 8 0 14 7 14 6 0 8 5 5 10 -4 6 -3 19 1 28 4 9 8 22 9 27 2 17 17 69 22
78 3 4 24 7 46 5 l42 -3 0 -80z m-269 13 c-3 -18 -10 -51 -15 -73 -6 -22 -8
-41 -6 -44 2 -2 0 -12 -6 -22 -9 -17 -26 -92 -34 -146 -2 -12 -5 -26 -8 -30
-3 -5 -8 -28 -12 -53 -4 -25 -8 -47 -10 -51 -2 -3 -7 -21 -10 -40 -3 -19 -17
-84 -31 -146 -14 -62 -27 -125 -29 -140 -2 -15 -4 -28 -5 -28 -1 0 -3 -11 -6
-25 -2 -14 -11 -54 -18 -90 -8 -36 -18 -85 -21 -110 -4 -24 -8 -47 -10 -50 -2
-3 -6 -21 -9 -40 -3 -19 -8 -46 -11 -60 -3 -14 -10 -52 -16 -85 -14 -84 -19
-110 -34 -190 -8 -38 -11 -73 -9 -77 3 -4 0 -8 -6 -8 -6 0 -9 -3 -7 -7 3 -5
-1 -42 -9 -83 -8 -41 -17 -86 -19 -100 -3 -14 -7 -36 -10 -50 -2 -13 -7 -42
-11 -64 -3 -22 -8 -44 -11 -48 -2 -5 -7 -20 -9 -35 -9 -48 -46 -123 -61 -123
-9 0 -12 6 -9 18 5 18 11 66 21 167 3 33 8 71 10 85 2 14 7 48 10 75 4 28 9
66 11 85 2 19 7 53 9 75 5 34 14 101 39 270 3 17 7 50 11 75 3 25 8 52 10 60
2 8 7 35 10 60 9 63 14 101 20 130 3 14 7 39 10 55 2 17 13 68 24 115 10 47
17 88 14 93 -2 4 0 7 5 7 5 0 9 6 10 13 1 20 11 62 48 205 20 75 37 142 38
147 12 50 31 107 46 140 10 22 22 54 26 70 11 50 46 105 66 105 16 0 18 -5 14
-32z m554 -306 c-8 -15 -23 -39 -33 -54 -10 -16 -15 -28 -10 -28 4 0 3 -4 -3
-8 -6 -4 -28 -34 -49 -67 -21 -33 -56 -86 -77 -117 -22 -32 -36 -58 -31 -58 4
0 0 -5 -9 -11 -10 -5 -18 -17 -18 -24 0 -8 -6 -15 -13 -15 -10 0 -14 14 -13
45 0 25 4 45 9 45 4 0 5 5 2 10 -3 6 -1 10 4 10 6 0 11 9 11 19 0 10 7 22 16
25 9 4 14 9 11 12 -5 6 11 29 45 65 9 9 14 20 11 23 -4 3 -1 6 6 6 6 0 16 11
21 25 5 14 14 25 19 25 5 0 13 9 16 20 4 11 11 18 16 15 5 -4 9 -1 9 5 0 14
60 73 68 66 3 -3 -1 -18 -8 -34z m-1146 -2419 c-2 -25 -6 -63 -19 -183 -4 -33
-11 -101 -19 -165 -2 -16 -7 -57 -12 -90 -4 -33 -9 -68 -10 -77 -1 -10 -3 -19
-4 -20 -2 -2 -4 -19 -5 -38 -2 -19 -6 -51 -10 -70 -4 -19 -8 -46 -10 -60 -8
-65 -16 -128 -20 -155 -2 -16 -6 -48 -10 -70 -3 -22 -7 -56 -9 -75 -3 -19 -5
-35 -6 -35 -1 0 -4 -18 -5 -40 -2 -22 -6 -65 -9 -95 -3 -30 -8 -75 -11 -100
-3 -25 -7 -72 -10 -105 -3 -33 -8 -82 -11 -110 -3 -27 -6 -75 -8 -105 -2 -30
-7 -84 -10 -120 -9 -91 -18 -245 -19 -312 -1 -35 -6 -58 -13 -58 -14 0 -12
139 11 545 2 39 6 120 9 180 3 61 8 133 11 160 5 52 14 168 20 265 2 30 4 55
5 55 2 0 4 20 5 45 2 25 6 72 9 105 3 33 7 87 10 120 3 33 8 83 11 110 3 28 7
64 9 80 2 17 6 46 10 65 4 19 9 49 11 65 2 17 4 31 4 33 1 1 0 4 -1 5 -2 2 3
11 11 20 7 10 11 17 7 17 -3 0 -1 12 5 28 6 15 13 36 15 47 7 27 9 33 24 85 8
25 14 50 15 55 0 13 18 34 26 30 3 -2 4 -16 3 -32z m-493 -996 c-2 -12 29 -67
48 -86 13 -13 16 -31 15 -72 -3 -68 -11 -183 -20 -274 -9 -101 -12 -141 -19
-225 -3 -41 -8 -88 -10 -105 -2 -16 -6 -66 -10 -110 -4 -44 -8 -96 -10 -115
-3 -19 -7 -82 -10 -139 -5 -102 -10 -125 -23 -117 -16 10 -4 869 17 1239 1 10
6 17 12 15 6 -2 10 -7 10 -11z m280 -1263 c14 -12 22 -13 39 -4 21 11 21 10
15 -82 -4 -51 -8 -124 -10 -163 -2 -38 -6 -104 -9 -145 -5 -68 -10 -153 -21
-340 -14 -252 -21 -330 -31 -340 -18 -17 -21 76 -20 489 3 556 4 601 13 601 3
0 14 -7 24 -16z"/>
<path d="M17200 25872 c0 -15 -68 -44 -96 -40 -23 2 -28 -1 -26 -14 4 -27 -16
-58 -38 -58 -11 0 -20 -4 -20 -9 0 -5 -26 -12 -57 -16 -74 -8 -158 -41 -200
-78 -46 -40 -99 -139 -116 -217 -9 -36 -20 -126 -26 -200 -6 -74 -13 -146 -16
-160 -7 -35 -33 -318 -51 -545 -11 -153 -18 -195 -33 -215 -19 -26 -55 -39
-186 -69 -209 -48 -396 -100 -530 -148 -38 -14 -85 -28 -102 -30 -18 -3 -33
-9 -33 -13 0 -9 -75 -62 -103 -73 -13 -5 -16 -13 -11 -32 3 -14 2 -31 -4 -38
-17 -20 -18 -61 -2 -78 8 -10 28 -32 45 -50 39 -46 125 -64 200 -43 28 7 100
27 160 44 224 62 383 99 496 115 41 6 46 5 56 -18 8 -18 9 -127 2 -403 -13
-536 -13 -1629 1 -2154 14 -553 47 -1527 61 -1800 14 -269 25 -757 28 -1204 1
-198 4 -362 6 -366 2 -4 5 -189 6 -411 1 -362 6 -625 23 -1189 12 -393 17
-1076 8 -1088 -33 -47 -632 -4 -899 65 -35 9 -63 19 -63 23 0 4 -12 5 -26 2
-14 -2 -35 0 -47 6 -38 18 -78 21 -84 5 -3 -8 -23 -21 -45 -30 -45 -18 -55
-33 -58 -88 -3 -38 5 -64 32 -110 6 -11 14 -27 18 -35 4 -8 15 -17 26 -20 54
-15 86 -64 47 -72 -12 -3 -5 -8 19 -15 20 -6 52 -23 71 -37 19 -14 41 -26 50
-26 8 0 17 -3 19 -7 5 -12 79 -46 228 -103 178 -69 219 -82 390 -125 203 -49
220 -56 257 -92 18 -17 39 -33 46 -36 19 -6 -11 -55 -37 -60 -12 -2 -4 -5 17
-6 34 -1 37 -3 37 -32 0 -29 -2 -30 -39 -28 -38 3 -71 -16 -71 -40 0 -6 -9
-11 -20 -11 -11 0 -20 -7 -20 -15 0 -10 -10 -15 -28 -15 -26 0 -28 -3 -24 -31
4 -28 -2 -49 -30 -103 -8 -16 -6 -23 11 -37 11 -9 21 -24 21 -32 0 -8 9 -17
20 -20 14 -4 20 -14 20 -35 0 -29 2 -30 34 -25 39 6 136 -24 142 -44 12 -40
15 -44 26 -37 15 10 58 12 52 3 -2 -4 3 -12 10 -18 10 -8 16 -9 21 -1 3 5 11
10 16 10 6 0 7 -4 4 -10 -3 -6 4 -10 17 -11 87 -3 122 -9 160 -29 45 -23 58
-36 58 -59 0 -11 -11 -12 -52 -8 -45 6 -49 5 -32 -7 10 -8 22 -12 26 -9 5 2
21 -5 37 -16 16 -12 35 -21 43 -21 15 0 58 -43 58 -58 0 -5 9 -12 20 -15 15
-4 20 -14 20 -38 0 -31 1 -31 18 -13 35 38 44 29 40 -39 -2 -43 1 -68 10 -76
22 -21 29 -3 25 64 -6 78 9 92 54 51 l28 -26 11 52 c7 29 17 54 23 56 6 2 11
10 11 18 0 20 38 17 48 -3 6 -10 13 -37 17 -60 4 -24 10 -43 15 -43 6 0 26
-57 36 -100 0 -3 3 -12 7 -20 12 -31 69 -202 71 -213 1 -7 8 -22 14 -35 7 -12
10 -27 7 -32 -3 -6 -1 -10 4 -10 6 0 11 -6 11 -12 0 -7 16 -50 34 -95 19 -46
31 -83 28 -83 -4 0 -1 -4 6 -9 7 -4 14 -18 15 -29 1 -12 5 -22 9 -22 4 0 8 -6
8 -12 0 -7 14 -40 30 -73 16 -32 26 -63 24 -67 -3 -4 -1 -8 5 -8 9 0 21 -25
21 -43 -1 -4 6 -15 14 -23 9 -8 19 -21 23 -29 5 -9 17 -12 30 -9 19 5 20 10
12 31 -5 14 -7 28 -4 33 3 5 0 10 -5 12 -6 2 -12 13 -13 26 0 12 -4 22 -8 22
-7 0 -34 80 -32 97 0 7 -3 13 -8 13 -5 0 -9 9 -9 19 0 11 -4 23 -10 26 -5 3
-10 16 -10 29 0 12 -5 27 -12 34 -7 7 -9 12 -5 12 4 0 1 14 -8 30 -9 16 -13
30 -10 30 3 0 -1 13 -10 30 -8 16 -16 41 -17 55 -1 14 -7 25 -12 25 -5 0 -6 3
-3 7 4 3 2 12 -4 20 -6 7 -9 13 -6 13 3 0 -1 16 -9 35 -8 19 -14 36 -13 37 0
2 -4 16 -10 31 -6 15 -13 42 -16 59 -3 17 -10 38 -14 47 -5 9 -9 19 -10 24 0
4 -3 17 -6 30 -4 13 -8 32 -10 43 -2 10 -4 20 -5 22 -2 1 -4 7 -5 12 -1 6 -3
11 -5 13 -1 1 -3 11 -5 21 -2 10 -8 22 -14 25 -5 3 -12 28 -15 55 -3 27 -11
55 -17 62 -5 7 -13 38 -16 68 l-6 56 54 2 c30 1 61 2 69 4 8 1 21 2 28 3 6 1
12 7 12 15 0 7 10 14 23 14 96 1 615 120 857 198 490 156 992 355 1333 527 70
36 127 62 127 58 0 -3 4 -1 8 5 11 16 103 64 123 64 20 0 117 58 271 162 48
32 92 58 97 58 5 0 11 3 13 8 5 12 104 82 116 82 6 0 12 4 14 8 2 4 32 28 68
52 36 25 76 55 90 68 14 12 28 22 31 22 3 0 19 12 35 26 16 14 47 38 69 53 22
16 60 47 85 70 25 22 48 41 52 41 3 0 22 15 41 33 163 151 232 212 239 209 4
-1 7 2 6 7 -2 4 42 55 97 111 138 143 175 182 175 186 0 11 35 42 42 38 5 -3
7 -1 6 4 -2 5 11 25 27 43 17 19 49 57 70 84 22 28 48 59 58 70 36 42 195 258
255 347 76 112 166 251 167 258 0 3 19 37 42 75 72 123 166 304 226 435 14 30
44 95 66 144 23 49 41 93 41 97 0 5 11 32 24 61 13 29 31 73 39 98 23 65 47
133 54 150 3 8 7 20 9 25 1 6 9 30 18 54 9 24 16 54 16 68 0 13 18 85 39 161
79 272 115 441 160 742 27 180 51 523 51 736 0 265 -32 663 -70 874 -37 202
-42 226 -71 355 -126 541 -321 1019 -622 1520 -170 282 -383 556 -647 829
-288 299 -541 517 -810 697 -179 120 -202 134 -434 263 -221 123 -281 163
-558 372 -288 217 -531 369 -792 498 -415 204 -777 322 -1321 431 -202 40
-265 59 -313 95 -34 25 -62 76 -62 111 0 13 -7 19 -24 19 -39 0 -74 17 -81 39
-6 20 -25 30 -25 13z m520 -498 c52 -8 124 -19 160 -25 55 -8 168 -36 420
-103 120 -32 333 -108 470 -168 157 -69 443 -223 484 -260 27 -24 14 -52 -21
-43 -27 6 -209 44 -343 70 -181 35 -537 61 -706 51 -119 -7 -158 0 -168 32 -6
18 -11 19 -48 9 -33 -8 -43 -7 -52 4 -6 8 -20 14 -31 14 -12 0 -21 8 -23 20
-3 11 -10 24 -18 28 -8 4 -14 15 -14 22 0 28 -18 15 -30 -21 -10 -30 -16 -35
-36 -31 -17 3 -25 -1 -29 -14 -5 -15 -16 -19 -51 -19 -43 0 -44 0 -44 -34 0
-21 -6 -36 -15 -40 -8 -3 -15 -14 -15 -24 0 -26 -37 -57 -85 -72 -22 -7 -47
-18 -55 -24 -40 -32 -142 -64 -148 -47 -2 6 -10 17 -17 25 -29 29 -17 232 20
339 8 22 12 44 9 49 -7 11 37 188 48 188 4 0 8 6 8 14 0 8 7 16 15 20 8 3 15
12 15 19 0 45 97 52 300 21z m-803 -22 c13 -8 12 -90 -1 -272 -12 -165 -18
-259 -22 -340 -4 -92 -11 -195 -14 -195 0 0 -3 -20 -5 -45 -9 -98 -17 -113
-68 -132 -28 -11 -47 -13 -47 -7 0 5 -4 8 -9 4 -5 -3 -12 3 -16 14 -6 20 0
163 11 261 3 30 7 69 9 85 3 34 13 115 19 160 6 48 22 135 31 175 6 30 15 76
21 110 5 33 12 65 14 65 1 0 4 11 6 25 3 13 9 29 14 34 6 6 10 16 10 23 0 14
20 42 30 42 3 1 11 -3 17 -7z m1858 -721 c216 -32 327 -55 565 -120 224 -61
600 -213 715 -289 136 -90 485 -433 485 -478 0 -7 -7 -14 -16 -14 -18 0 -148
63 -239 115 -103 60 -356 182 -506 243 -184 76 -385 141 -569 185 -158 38
-208 49 -299 62 -53 8 -120 19 -150 25 -77 13 -302 37 -481 50 -177 13 -251
25 -262 43 -27 42 11 157 51 157 11 0 21 5 23 12 14 41 432 46 683 9z m-240
-621 c311 -17 468 -38 760 -101 55 -12 116 -25 135 -29 86 -18 246 -65 365
-106 213 -74 239 -84 249 -94 6 -6 16 -10 24 -10 8 0 61 -22 118 -50 57 -27
106 -50 109 -50 3 0 18 -8 33 -19 15 -10 63 -41 108 -70 44 -28 89 -59 100
-69 10 -9 37 -29 60 -45 22 -15 49 -35 60 -45 10 -9 53 -44 94 -77 110 -87
372 -352 481 -485 176 -216 277 -380 418 -681 54 -117 158 -411 210 -599 12
-41 28 -97 36 -125 12 -44 53 -220 84 -360 21 -94 55 -307 81 -500 31 -234 32
-673 1 -936 -37 -329 -166 -826 -296 -1144 -7 -16 -28 -68 -46 -115 -19 -47
-36 -87 -39 -90 -3 -3 -6 -12 -8 -20 -9 -38 -204 -416 -222 -430 -3 -3 -9 -13
-13 -22 -12 -33 -138 -218 -148 -218 -6 0 -8 -4 -5 -8 3 -5 -6 -20 -20 -35
-13 -14 -24 -29 -24 -33 0 -16 -215 -272 -224 -267 -6 3 -8 3 -4 -2 26 -28
-457 -503 -742 -731 -132 -105 -370 -279 -370 -270 0 3 -12 -6 -26 -19 -15
-14 -33 -25 -40 -25 -7 0 -14 -4 -16 -8 -10 -26 -598 -353 -598 -334 0 4 -4 2
-8 -3 -6 -9 -47 -29 -217 -105 -284 -128 -736 -265 -1035 -315 -53 -8 -110
-19 -127 -24 -52 -15 -325 -35 -367 -27 l-38 7 6 117 c3 64 6 124 7 132 0 8 5
51 9 95 5 44 12 114 15 155 8 107 12 120 35 120 11 0 19 3 18 8 -1 4 6 20 17
36 19 28 20 50 21 455 0 234 3 437 7 451 3 14 8 77 12 140 3 63 10 158 15 210
6 52 12 124 15 160 4 59 48 626 60 775 3 33 8 92 12 130 4 39 6 73 5 77 -1 3
3 55 8 115 5 59 11 149 15 198 3 50 8 113 11 140 2 28 9 120 15 205 5 85 14
216 19 290 12 167 18 267 25 390 10 159 15 242 20 300 2 30 7 145 11 255 4
110 8 203 10 206 1 3 5 93 9 200 3 107 8 223 10 259 3 36 7 157 10 270 2 113
7 259 10 325 3 66 7 206 10 310 3 105 7 237 10 295 3 58 7 224 10 370 21 1136
31 1412 51 1463 3 10 16 23 28 29 21 12 325 29 376 21 14 -2 102 -8 195 -13z
m-922 -11 c19 -18 22 -29 19 -92 -2 -69 -21 -355 -42 -637 -5 -74 -17 -227
-25 -340 -8 -113 -19 -266 -25 -340 -17 -224 -59 -837 -65 -960 -3 -63 -8
-151 -10 -195 -3 -44 -10 -179 -15 -300 -6 -121 -13 -258 -15 -305 -2 -47 -9
-209 -15 -360 -5 -151 -12 -320 -15 -375 -16 -350 -21 -1590 -8 -2049 4 -149
8 -455 8 -681 -1 -430 -4 -474 -75 -1228 -11 -114 -20 -210 -20 -212 0 -3 -6
-5 -14 -5 -11 0 -15 31 -20 153 -5 142 -25 1092 -33 1542 -13 844 -32 1739
-39 1880 -2 50 -9 216 -14 370 -5 154 -12 327 -15 385 -3 58 -10 267 -15 465
-13 460 -26 751 -51 1100 -25 365 -22 1114 7 1450 2 28 11 135 19 240 9 104
25 248 36 319 10 70 19 130 19 132 0 2 13 10 28 18 49 25 163 44 270 45 91 1
105 -1 125 -20z m3107 -82 c231 -152 449 -335 715 -602 322 -322 549 -612 770
-985 84 -143 258 -496 318 -650 52 -130 141 -397 162 -480 7 -30 23 -91 34
-135 143 -544 191 -1180 136 -1799 -56 -630 -231 -1257 -514 -1841 -48 -99
-107 -214 -131 -255 -24 -41 -60 -106 -81 -143 -113 -203 -350 -533 -555 -772
-265 -310 -768 -775 -838 -775 -33 0 -12 29 100 140 298 294 483 523 754 930
191 287 321 513 484 845 214 433 351 769 451 1100 14 50 31 105 37 124 21 67
67 260 78 321 4 25 17 99 28 165 51 288 65 479 66 860 1 237 -4 401 -12 480
-14 122 -45 328 -62 400 -75 331 -165 597 -314 928 -39 87 -161 308 -235 427
-214 344 -474 649 -802 941 -121 108 -142 131 -270 294 -135 172 -231 288
-356 429 -51 57 -67 96 -40 96 7 0 42 -19 77 -43z m-3949 -6 c4 -20 21 -424
20 -486 -3 -198 -14 -444 -26 -605 -8 -104 -11 -157 -20 -285 -11 -165 -14
-216 -19 -310 -3 -49 -8 -128 -11 -175 -13 -191 -27 -441 -27 -472 1 -10 -5
-18 -11 -18 -8 0 -13 36 -16 118 -7 209 -5 1270 3 1512 4 129 9 285 11 345 4
118 14 310 18 336 4 24 30 47 54 47 13 0 24 -3 24 -7z m5073 -1574 c31 -40 56
-79 56 -85 0 -7 4 -12 8 -12 4 0 17 -14 27 -32 120 -193 150 -246 216 -373
121 -232 245 -556 313 -815 28 -108 73 -325 80 -391 3 -24 12 -102 20 -174 38
-342 26 -824 -30 -1180 -21 -137 -90 -469 -121 -585 -14 -52 -29 -108 -33
-125 -9 -34 -61 -196 -86 -267 -16 -46 -44 -66 -44 -31 0 9 22 105 49 212 79
312 108 469 136 736 8 83 18 175 22 205 10 91 6 566 -6 700 -41 455 -126 863
-276 1325 -90 279 -177 481 -343 796 -40 75 -72 144 -72 153 0 34 30 14 84
-57z m-4169 -719 c-3 -164 -8 -342 -20 -673 -2 -60 -7 -184 -10 -275 -3 -91
-8 -205 -10 -255 -3 -49 -7 -139 -9 -200 -3 -60 -8 -157 -11 -215 -10 -175
-15 -251 -19 -340 -7 -124 -17 -287 -21 -345 -2 -27 -7 -102 -11 -165 -6 -113
-11 -178 -13 -192 -1 -5 -6 -8 -12 -8 -10 0 -6 474 6 755 2 44 6 163 10 265 3
102 8 221 10 265 3 44 7 134 10 200 10 221 19 383 30 565 3 52 8 131 10 175 3
44 7 119 11 167 3 48 7 113 9 145 5 86 17 255 20 278 4 34 5 35 14 35 5 0 7
-81 6 -182z m-694 -1585 c0 -5 2 -18 5 -30 2 -13 -1 -23 -7 -23 -8 0 -8 -4 1
-14 6 -8 11 -23 10 -33 -1 -10 -1 -20 0 -23 3 -6 10 -110 25 -421 3 -57 7
-144 10 -194 3 -49 8 -216 10 -370 3 -154 7 -383 10 -510 2 -126 7 -383 10
-570 2 -187 7 -414 10 -505 3 -91 8 -268 11 -395 2 -126 6 -319 9 -427 2 -121
0 -198 -6 -198 -5 0 -9 3 -10 8 0 4 -2 16 -5 27 -7 36 -25 192 -44 370 -17
168 -19 186 -30 310 -17 198 -19 227 -25 310 -3 44 -8 100 -10 125 -4 42 -8
103 -21 280 -5 84 -14 290 -20 485 -6 164 -5 906 1 1085 6 198 19 465 30 605
3 44 6 88 6 98 0 16 28 25 30 10z m5295 -565 c-4 -62 -15 -174 -26 -248 -10
-74 -24 -180 -30 -235 -19 -174 -105 -552 -139 -610 -3 -5 -6 -14 -6 -20 0
-23 -40 -145 -47 -145 -5 0 -8 -9 -8 -19 0 -18 -61 -179 -101 -268 -10 -24
-19 -45 -19 -47 0 -16 -145 -304 -162 -320 -11 -12 -48 -70 -82 -130 -84 -149
-97 -170 -110 -178 -6 -4 -8 -8 -3 -8 6 0 -86 -145 -103 -160 -3 -3 -9 -13
-15 -22 -33 -55 -87 -128 -96 -128 -5 0 -8 -4 -7 -8 2 -4 -22 -39 -52 -77 -30
-38 -62 -79 -70 -91 -14 -20 -58 -72 -155 -182 -60 -69 -391 -399 -464 -464
-35 -32 -69 -54 -74 -51 -6 3 -7 2 -4 -3 3 -6 -14 -26 -39 -45 -25 -18 -59
-47 -77 -62 -18 -16 -43 -36 -57 -45 -14 -10 -35 -26 -48 -37 -13 -11 -24 -18
-25 -15 -1 2 -20 -12 -41 -32 -22 -21 -41 -36 -43 -34 -2 2 -18 -9 -35 -25
-17 -15 -35 -26 -39 -24 -4 3 -9 -2 -13 -10 -3 -8 -10 -15 -16 -15 -5 0 -21
-10 -36 -22 -14 -13 -27 -22 -30 -21 -2 1 -15 -9 -30 -22 -15 -14 -30 -22 -34
-20 -4 3 -10 -2 -14 -10 -3 -8 -10 -15 -16 -15 -6 0 -28 -13 -48 -29 -20 -16
-51 -38 -69 -48 -17 -10 -64 -38 -105 -63 -40 -25 -74 -44 -75 -42 -2 1 -13
-7 -25 -17 -11 -11 -25 -18 -30 -15 -4 3 -8 1 -8 -4 0 -4 -17 -17 -37 -28 -21
-11 -49 -26 -63 -34 -32 -17 -43 -23 -115 -62 -32 -18 -61 -31 -63 -30 -3 2
-8 0 -11 -5 -9 -14 -213 -114 -219 -108 -3 2 -10 -1 -16 -8 -6 -8 -31 -21 -56
-31 -25 -10 -54 -22 -65 -27 -41 -17 -130 -51 -145 -54 -8 -2 -40 -13 -70 -24
-49 -18 -155 -50 -184 -55 -6 -2 -29 -8 -52 -14 -22 -7 -53 -13 -70 -15 -16
-2 -47 -9 -69 -15 -129 -35 -354 -55 -644 -57 -229 -2 -234 -2 -257 20 -21 19
-24 31 -22 76 1 30 5 59 10 65 4 6 8 22 8 35 0 47 4 56 32 72 15 9 28 13 28 8
0 -4 24 -4 53 1 28 5 70 10 92 13 80 9 393 58 460 71 70 14 239 54 286 68 31
9 65 18 75 21 11 2 48 13 83 24 35 12 67 19 71 16 5 -3 10 -2 12 3 1 4 48 23
103 41 55 19 111 38 125 44 14 6 27 11 30 12 3 1 22 9 44 18 21 9 42 15 46 12
5 -3 12 -1 15 5 7 12 86 46 98 42 4 -1 7 2 7 7 0 8 34 21 54 20 5 -1 12 3 15
8 3 4 22 16 41 25 19 9 94 46 166 82 73 36 135 62 139 58 5 -4 5 -2 2 4 -8 14
20 27 36 17 7 -3 9 -2 4 2 -4 5 10 17 30 27 21 10 52 28 68 38 17 11 37 23 45
27 8 4 49 28 90 53 41 26 86 53 100 61 14 8 27 17 30 20 7 8 131 89 136 89 3
0 10 4 17 10 54 44 76 60 82 60 3 0 12 6 20 13 7 6 25 21 41 32 15 11 33 26
40 33 7 6 15 12 19 12 4 0 12 6 20 13 16 15 39 33 90 72 22 16 47 36 55 45 28
26 70 60 70 56 0 -2 17 13 38 33 22 20 62 56 91 81 28 25 80 74 116 109 36 35
65 61 65 58 0 -3 13 6 28 21 15 15 27 29 27 32 -1 3 13 19 32 37 18 18 33 29
33 25 0 -3 8 5 17 18 10 14 50 59 89 100 128 134 161 170 156 170 -3 0 3 8 14
19 10 10 35 38 54 62 19 24 47 56 62 71 14 15 23 28 20 28 -4 0 2 7 12 15 11
8 17 15 13 15 -7 0 -3 6 28 43 6 7 26 33 45 60 18 26 37 47 42 47 5 0 7 4 4 8
-3 5 6 20 19 34 13 14 21 28 18 32 -3 3 2 8 11 12 9 3 14 10 11 14 -2 4 6 19
20 34 13 14 22 26 20 26 -4 0 36 65 54 86 5 6 12 20 15 32 4 12 12 22 17 22 6
0 8 4 5 8 -3 5 3 18 12 28 10 10 18 22 18 25 -2 11 39 79 47 79 4 0 6 4 2 9
-3 5 2 17 11 25 8 9 13 16 9 16 -7 0 26 62 38 71 5 3 8 8 7 10 -2 5 15 50 44
112 13 29 34 77 46 107 13 30 27 59 32 65 4 5 8 14 8 21 0 6 8 29 17 50 9 22
17 41 18 44 1 3 11 37 22 75 12 39 26 88 31 110 5 22 28 99 50 170 22 72 48
165 58 207 11 43 23 78 27 78 5 0 6 3 3 8 -3 6 9 77 39 213 2 9 13 79 25 155
28 184 28 184 46 184 15 0 16 -13 10 -112z m-686 -2585 c0 -21 -79 -153 -91
-153 -5 0 -8 -3 -6 -8 3 -10 -63 -112 -72 -112 -4 0 -8 -6 -8 -12 0 -35 -304
-435 -430 -566 -8 -8 -25 -30 -40 -50 -42 -57 -287 -304 -397 -401 -206 -180
-396 -324 -424 -319 -14 2 -95 -43 -112 -63 -3 -3 -32 -22 -65 -42 -33 -21
-67 -42 -75 -47 -56 -36 -201 -120 -206 -120 -3 0 -18 -8 -32 -19 -52 -37
-495 -253 -519 -254 -7 0 -13 -4 -13 -9 0 -4 -4 -8 -10 -8 -5 0 -33 -11 -62
-24 -82 -38 -366 -139 -418 -150 -14 -2 -46 -11 -72 -19 -27 -8 -48 -13 -48
-10 0 3 -7 0 -15 -7 -8 -7 -15 -10 -15 -7 0 3 -28 -2 -62 -10 -35 -8 -72 -17
-83 -19 -39 -6 -81 -14 -125 -24 -25 -5 -65 -12 -90 -16 -25 -3 -50 -10 -56
-15 -6 -5 -14 -6 -17 -2 -4 3 -13 0 -22 -7 -12 -10 -15 -10 -15 0 0 9 -4 9
-12 3 -7 -6 -39 -10 -71 -9 -31 1 -57 -1 -57 -4 0 -7 -77 -3 -90 5 -6 3 -10 2
-10 -2 0 -10 -17 -12 -105 -13 -56 -1 -71 1 -127 16 -13 3 -39 7 -58 7 -29 2
-102 37 -76 37 5 0 2 8 -5 17 -12 14 -12 16 0 9 11 -7 13 -1 9 28 -2 20 0 36
5 36 4 0 6 4 3 9 -3 5 1 14 9 21 8 7 15 18 15 26 0 7 8 11 20 9 11 -2 20 0 20
4 0 5 15 7 33 6 17 -2 32 -4 32 -5 0 -1 10 -3 23 -6 13 -2 21 0 18 5 -7 11 37
9 46 -3 18 -26 457 6 668 48 511 103 934 278 1515 629 133 81 566 374 585 396
3 3 43 35 90 71 47 35 90 69 96 75 6 5 33 28 60 50 27 22 67 56 89 76 22 20
52 46 68 59 15 13 27 30 27 38 0 19 162 182 174 175 5 -4 6 -2 3 4 -3 5 13 28
36 49 23 22 62 62 87 90 25 27 50 47 55 46 6 -2 7 0 3 4 -4 3 21 39 56 78 74
82 232 279 294 366 43 59 72 77 72 43z m-4672 -625 c0 -7 3 -22 5 -33 3 -11
10 -56 16 -100 15 -104 15 -102 56 -365 34 -216 42 -265 51 -320 12 -69 13
-114 4 -125 -5 -7 -24 -12 -42 -13 -32 -1 -74 15 -64 25 3 3 0 15 -6 26 -6 12
-12 55 -14 96 -2 42 -5 96 -8 121 -8 66 -30 638 -27 688 1 6 7 12 14 12 8 0
14 -6 15 -12z m-738 -1157 c63 -6 191 -13 284 -16 98 -3 175 -10 183 -17 9 -7
13 -40 13 -108 0 -96 -1 -98 -25 -104 -50 -13 -288 32 -370 69 -17 8 -49 18
-70 23 -124 30 -345 132 -345 159 0 14 12 15 108 10 59 -4 159 -11 222 -16z
m933 -30 c11 -11 21 -215 13 -247 -6 -22 -10 -23 -69 -19 -34 2 -71 6 -82 9
-11 2 -23 5 -26 5 -21 3 -36 73 -35 161 l1 95 50 3 c28 2 55 4 60 6 17 5 80
-5 88 -13z m-23 -456 c4 2 14 -2 21 -11 15 -18 20 -202 7 -211 -5 -2 -6 -9 -3
-14 10 -15 -39 -28 -86 -23 -53 6 -59 10 -59 34 0 10 -5 22 -10 25 -6 3 -8 19
-5 36 3 16 1 29 -4 29 -5 0 -9 10 -8 23 0 12 -2 38 -6 57 -3 19 -2 42 3 50 5
8 10 12 10 8 0 -3 12 -3 28 1 15 4 44 4 65 -1 21 -5 42 -6 47 -3z m-327 -610
c-3 -9 -8 -14 -10 -11 -3 3 -2 9 2 15 9 16 15 13 8 -4z"/>
<path d="M17512 15900 c0 -19 2 -27 5 -17 2 9 2 25 0 35 -3 9 -5 1 -5 -18z"/>
<path d="M29305 25773 c-14 -15 -54 -58 -88 -94 -34 -36 -63 -70 -65 -75 -2
-5 -23 -29 -46 -54 -23 -25 -43 -49 -43 -53 -1 -12 -45 -131 -52 -142 -4 -5
-13 -29 -21 -52 -7 -24 -17 -43 -22 -43 -5 0 -7 -4 -4 -8 2 -4 -4 -28 -16 -52
-11 -25 -33 -81 -49 -125 -17 -43 -35 -85 -41 -92 -6 -7 -8 -13 -5 -13 3 0 -8
-39 -24 -87 -30 -90 -65 -277 -73 -393 -2 -36 -10 -144 -16 -240 -12 -171 -9
-1217 3 -1237 12 -20 21 -387 23 -928 2 -604 11 -1284 19 -1370 2 -27 7 -180
10 -340 3 -159 8 -326 10 -370 3 -44 10 -195 15 -335 6 -140 13 -291 15 -335
3 -44 9 -177 15 -295 5 -118 12 -244 15 -280 2 -36 7 -119 10 -185 3 -66 8
-131 10 -145 2 -14 7 -88 10 -165 4 -77 8 -142 10 -145 1 -3 6 -63 10 -135 3
-71 8 -143 10 -160 3 -16 7 -66 10 -110 3 -44 7 -105 10 -135 27 -293 37 -403
55 -585 10 -104 22 -221 25 -260 4 -38 8 -81 10 -95 8 -57 16 -118 20 -160 2
-25 13 -124 24 -220 10 -96 22 -218 25 -270 4 -52 8 -129 11 -170 6 -105 35
-550 40 -635 3 -38 10 -117 16 -175 18 -182 20 -301 5 -350 -30 -95 -189 -438
-210 -452 -6 -4 -7 -8 -3 -8 10 0 -52 -112 -67 -122 -6 -4 -7 -8 -3 -8 9 0
-42 -92 -58 -102 -5 -4 -6 -8 -2 -8 9 0 -61 -131 -78 -145 -7 -5 -13 -13 -14
-17 -3 -16 -15 -46 -52 -139 -22 -52 -39 -101 -39 -109 0 -19 44 23 93 90 22
30 44 57 49 58 4 2 8 8 8 13 0 8 59 109 69 119 8 7 28 39 46 76 9 17 24 40 33
50 9 11 26 35 36 54 11 19 22 37 25 40 3 3 14 21 25 40 10 19 24 40 30 45 6 6
12 16 13 22 3 12 62 114 72 123 4 3 15 23 26 45 13 26 28 41 43 43 35 5 50
-39 72 -220 8 -71 19 -95 64 -139 21 -21 74 -122 76 -144 0 -3 2 -10 5 -17 2
-7 13 -51 25 -97 14 -60 27 -90 46 -107 29 -27 66 -31 84 -9 7 8 16 12 21 9 5
-3 8 -1 7 4 -2 6 16 24 40 42 58 42 74 81 61 151 -5 30 -14 232 -19 449 -9
371 -12 443 -25 580 -2 30 -7 91 -10 135 -3 44 -7 98 -10 120 -3 22 -7 72 -10
110 -3 39 -10 111 -16 161 -5 50 -9 95 -8 100 2 5 -1 38 -4 74 -9 90 -23 384
-32 665 -3 99 -7 218 -10 265 -3 47 -7 182 -10 300 -3 118 -7 231 -10 250 -2
19 -7 116 -10 215 -3 99 -8 198 -11 220 -6 47 -6 873 0 883 2 4 7 207 11 452
4 245 9 447 10 450 2 3 6 223 10 490 4 267 9 488 11 491 2 4 4 236 4 515 1
280 5 858 11 1284 5 426 8 867 7 980 -4 282 -4 974 0 1150 5 187 20 460 33
575 5 50 10 99 10 110 -1 11 4 61 9 110 5 50 12 128 16 175 3 47 8 92 10 100
3 8 8 71 11 140 5 114 4 130 -16 176 -25 57 -56 75 -108 62 -24 -6 -38 -19
-53 -47 -19 -38 -20 -62 -20 -826 0 -433 -2 -790 -4 -794 -2 -3 -7 -150 -11
-326 -4 -176 -10 -376 -14 -445 -4 -69 -9 -271 -10 -449 -1 -179 -4 -327 -6
-331 -2 -3 -6 -260 -10 -571 -5 -510 -18 -917 -31 -976 -2 -13 -11 -23 -19
-23 -8 0 -15 1 -15 3 0 2 -6 52 -14 113 -8 60 -17 154 -21 209 -3 55 -8 125
-11 155 -4 57 -31 489 -39 645 -3 50 -7 108 -10 130 -3 22 -14 182 -25 355
-11 173 -24 387 -30 475 -30 467 -39 620 -39 718 0 60 -3 112 -6 116 -8 15
-13 845 -5 956 15 189 36 341 66 460 22 89 97 309 106 313 5 2 6 7 4 11 -3 4
-1 25 5 47 5 21 12 76 15 121 6 73 5 84 -14 108 l-21 27 -26 -29z m-406 -1095
c-6 -10 -5 -19 1 -23 6 -4 7 -12 3 -18 -4 -7 -8 -21 -9 -32 -6 -58 -9 -75 -14
-75 -3 0 -6 -15 -6 -33 -1 -26 -8 -76 -14 -107 0 -3 -5 2 -10 11 -5 9 -7 27
-4 40 3 13 7 40 9 59 2 19 4 35 5 35 4 0 11 46 15 95 2 30 4 56 5 58 3 3 7 18
9 35 2 6 6 3 10 -8 5 -11 5 -28 0 -37z m35 -1705 c5 -27 24 -243 24 -273 0 -8
4 -71 10 -140 5 -69 10 -132 10 -140 0 -8 3 -55 7 -105 4 -49 8 -115 10 -145
2 -30 7 -86 10 -125 3 -38 8 -106 11 -150 2 -44 6 -102 8 -130 2 -27 7 -102
10 -165 4 -63 9 -146 11 -185 2 -38 7 -135 10 -215 2 -80 7 -194 10 -255 4
-60 8 -150 10 -200 6 -125 14 -272 21 -390 7 -121 13 -224 19 -370 4 -107 12
-258 20 -420 5 -96 14 -308 21 -460 2 -60 6 -150 9 -200 12 -209 16 -296 21
-390 2 -55 6 -140 9 -190 2 -49 7 -144 10 -210 3 -66 8 -156 10 -200 7 -137
16 -316 20 -410 3 -49 7 -144 10 -210 3 -66 8 -165 10 -220 2 -55 7 -165 11
-245 10 -192 10 -594 1 -648 -8 -51 -14 -62 -32 -62 -27 0 -30 34 -50 565 -3
72 -7 175 -10 230 -3 55 -8 163 -10 240 -3 77 -7 183 -10 235 -8 151 -23 536
-30 795 -2 94 -7 217 -9 275 -3 58 -8 184 -11 280 -3 96 -7 213 -10 260 -3 47
-7 173 -10 280 -3 107 -7 220 -10 250 -2 30 -7 143 -10 250 -4 107 -8 233 -10
280 -2 47 -7 155 -10 240 -4 85 -8 171 -10 190 -1 19 -6 109 -10 200 -3 90 -8
167 -10 170 -1 3 -6 61 -9 129 -4 68 -8 127 -10 130 -3 4 -7 49 -10 101 -4 52
-9 113 -11 135 -3 22 -8 72 -10 110 -2 39 -5 70 -6 70 -1 0 -4 27 -12 125 -3
36 -8 76 -11 90 -5 22 -8 60 -21 255 -2 28 -8 86 -14 130 -25 195 -34 387 -28
599 3 122 9 231 13 244 9 32 41 29 48 -5z"/>
<path d="M16535 14012 c-19 -13 -14 -28 10 -28 13 0 21 4 19 8 -5 8 5 11 38
11 10 0 15 4 12 8 -6 11 -65 12 -79 1z"/>
</g>
</svg>
